<?xml version="1.0" encoding="utf-8"?>
<!-- Generator: Adobe Illustrator 23.0.1, SVG Export Plug-In . SVG Version: 6.00 Build 0)  -->
<svg version="1.1" xmlns="http://www.w3.org/2000/svg" xmlns:xlink="http://www.w3.org/1999/xlink" x="0px" y="0px"
	 viewBox="0 0 150 150" style="enable-background:new 0 0 150 150;" xml:space="preserve">
<style type="text/css">
	.st0{display:none;}
	.st1{fill:#6699CC;}
	.st2{opacity:0.7;}
	.st3{fill:#CCAD8B;}
	.st4{fill:#BC9F82;}
	.st5{fill:#D9BF9F;}
	.st6{fill:#DCC5A1;}
	.st7{fill:#EDD9B4;}
	.st8{fill:#B47070;}
	.st9{fill:#C17874;}
	.st10{fill:#111111;}
	.st11{fill:#070707;}
	.st12{fill:#3D321B;}
</style>
<g id="Layer_2" class="st0">
</g>
<g id="Layer_1">
	<circle class="st1" cx="75" cy="75" r="75"/>
	<g>
		<g class="st2">
			<g>
				<defs>
					<rect id="SVGID_1_" x="66.92" y="122.95" width="22.02" height="12.97"/>
				</defs>
				<clipPath id="SVGID_2_">
					<use xlink:href="#SVGID_1_"  style="overflow:visible;"/>
				</clipPath>
			</g>
		</g>
		<g>
			<path class="st3" d="M77.84,31.33c-41.48-0.08-41.73,33.15-39.88,54.81c-2.84-5.08-11.26-3.2-10.57,4.95
				c0.67,7.79,12.55,11.33,12.39,10.47c3.4,17.65,22.96,27.45,38.06,28.85c0.11,0.01,0.22,0,0.32,0.01V31.33
				C78.06,31.33,77.95,31.33,77.84,31.33"/>
		</g>
		<g>
			<path class="st4" d="M29.47,87.65c2.09-3.15,5.29-1.79,6.08-1.09c0.84,0.75,1.49,1.75,0.98,3.61c-0.29,1.04-1.46,1.13-1.17,2.72
				c0.32,1.79,1.19,1.91,1.68,2.31c0.49,0.41,1.11,0.72,1.42,1.48c0.3,0.75,0.36,1.55,0.19,2.25c-0.32,1.29-2.3,0.27-3.63-0.31
				c-0.88-0.38-3.66-2.59-4.36-3.35C28.9,93.37,28.08,89.75,29.47,87.65"/>
		</g>
		<g>
			<path class="st5" d="M78.05,31.33c41.49-0.08,41.73,33.15,39.88,54.81c2.85-5.08,11.27-3.2,10.58,4.95
				c-0.67,7.79-12.56,11.33-12.39,10.47c-3.4,17.65-22.95,27.45-38.07,28.85c-0.1,0.01-0.21,0-0.32,0.01V31.33
				C77.84,31.33,77.95,31.33,78.05,31.33"/>
		</g>
		<g>
			<path class="st4" d="M126.72,87.65c-2.08-3.15-5.29-1.79-6.08-1.09c-0.84,0.75-1.49,1.75-0.99,3.61c0.3,1.04,1.46,1.13,1.18,2.72
				c-0.31,1.79-1.19,1.91-1.68,2.31c-0.49,0.41-1.12,0.72-1.42,1.48c-0.3,0.75-0.35,1.55-0.19,2.25c0.32,1.29,2.31,0.27,3.63-0.31
				c0.88-0.38,3.65-2.59,4.35-3.35C127.29,93.37,128.11,89.75,126.72,87.65"/>
		</g>
		<g>
			<path class="st6" d="M77.63,40.73c-13.85,0-24,3.81-30.14,11.32c-8.57,10.5-8.25,26.53-5.08,38.04c0.96,3.51,1.46,13,2.13,16.48
				c2.99,15.56,21.14,23.85,33.09,23.85c0.1,0,0.21-0.01,0.32-0.01V40.74C77.84,40.74,77.74,40.73,77.63,40.73"/>
		</g>
		<g>
			<path class="st7" d="M107.7,52.07c-6.09-7.47-16.12-11.27-29.75-11.33v89.67c13.64-0.14,29.95-9.22,32.76-23.84
				c0.66-3.48,1.16-12.97,2.13-16.47C115.99,78.62,116.3,62.61,107.7,52.07"/>
		</g>
		<g>
			<path class="st8" d="M84.92,116.36c0,0-3.13,3.34-6.99,3.34c-3.85,0-6.81-3.27-6.81-3.27s2.95-0.5,6.81-0.5
				C81.8,115.93,84.92,116.36,84.92,116.36"/>
		</g>
		<g>
			<path class="st9" d="M79.92,114.82c-1.09,0-1.96,0.68-1.99,1.52c-0.02-0.84-0.89-1.52-1.97-1.52c-1.1,0-5.01,1.54-5.01,1.54
				s3.81,0.39,4.92,0.39c1.08,0,2.05,0.43,2.07-0.37c0.02,0.81,0.81,0.5,1.89,0.5c1.1,0,5.1-0.52,5.1-0.52
				S81.01,114.82,79.92,114.82"/>
		</g>
		<g>
			<g>
				<path class="st10" d="M72.21,90.62c0,4.97-7.36,9.91-16.01,10.12c-0.18,0.02-0.39,0.02-0.59,0.02c-0.73,0-1.44-0.02-2.08-0.04
					c-10.49-0.49-11.96-4.74-11.96-9.55c0-5.08-3.07-9.19,15.05-9.19c2.76,0,5.01,0.08,6.88,0.25c2.54,0.2,4.35,0.57,5.64,1.05
					C73.15,84.75,72.21,87.37,72.21,90.62"/>
			</g>
			<g>
				<path class="st10" d="M115.27,91.17c0,5.1-1.67,9.59-14.04,9.59c-0.53,0-1.06-0.01-1.55-0.06c-0.94-0.04-1.84-0.17-2.72-0.34
					c-6.96-1.28-12.34-5.5-12.34-9.74c0-5.08-2.25-8.64,15.59-8.64c2.66,0,4.85,0.08,6.66,0.25c4.85,0.44,7.01,1.42,7.92,2.79
					C115.94,86.66,115.27,88.79,115.27,91.17"/>
			</g>
			<g>
				<path class="st11" d="M75.49,83.58c-1.07-0.17-3.63-0.81-6.25-1.32c-2.3-0.45-4.66-0.77-5.95-0.9
					c-3.14-0.31-11.15-0.54-16.12-0.2c-5.9,0.4-10.41,0.88-10.64,1.22c-0.17,0.24-0.52,3.37-0.04,3.71c0.47,0.34,2.13,1,2.54,2.12
					c0.4,1.11,2.04,9.08,5.69,11.28c6.01,3.58,26.2,3.74,29.68-9.35c0.48-1.79,1.11-2.83,2.2-3.12c0.47-0.14,1.22-0.23,1.95-0.22
					v-3.03C77.57,83.81,76.67,83.77,75.49,83.58 M71.24,91.31c-3.15,10.26-18.36,9.06-22.03,8.25c-1.62-0.35-6.35-1.68-7.1-10.03
					c-0.53-5.8,3.29-6.15,8.69-6.64c4.4-0.4,8.3-0.23,10.95,0.02c2.64,0.23,8.81,1.17,9.41,2.76
					C71.76,87.26,71.92,89.07,71.24,91.31"/>
			</g>
			<g>
				<path class="st11" d="M78.17,83.77v3.03c0.74-0.01,1.46,0.08,1.95,0.22c1.09,0.29,1.72,1.33,2.19,3.12
					c3.49,13.09,23.68,12.93,29.7,9.35c3.64-2.19,5.28-10.17,5.68-11.28c0.41-1.11,2.07-1.77,2.54-2.12
					c0.48-0.34,0.12-3.47-0.04-3.71c-0.22-0.34-4.75-0.83-10.64-1.22c-4.99-0.33-12.98-0.11-16.13,0.2
					c-1.29,0.14-3.65,0.45-5.96,0.9c-2.61,0.51-5.17,1.15-6.24,1.31C80.04,83.77,79.16,83.81,78.17,83.77 M85.58,85.67
					c0.6-1.59,6.77-2.53,9.41-2.76c2.64-0.25,6.55-0.42,10.94-0.02c5.4,0.49,9.23,0.85,8.69,6.64c-0.76,8.35-5.48,9.68-7.1,10.04
					c-3.67,0.8-18.88,2-22.03-8.26C84.8,89.07,84.96,87.27,85.58,85.67"/>
			</g>
		</g>
		<g>
			<path class="st12" d="M122.89,54.12c-0.54-1.71-1.11-3.3-1.68-4.83v-0.66c0-6.46-5.28-14.84-13.69-22.98
				c-8.41-8.14-13.7-6.46-20.66-6.23c0,0-0.02,0.05-0.05,0.13c-3.06-0.71-19.51-4.23-29.28-0.33
				c-10.81,4.31-19.67,11.71-25.91,31.58c-6.25,19.87-1.12,36.14,0.09,43.09c3.84,21.98,22.25,35.9,22.25,35.9
				s-4.65-5.88-6.73-11.73c-1.61-4.55-4.02-12.35-4.02-23.84c0-11.48,10.51-25.71,10.51-25.71s-4.85,8.92-5.8,18.74
				c-0.96,9.81,4.12,17.4,4.12,17.4s-6.44-12.74,3.85-22.26c3.27-3.03,6.01-6.19,8.21-9.07c0,0.01-0.01,0.01-0.01,0.02
				c-2.58,7.52,2.61,13.84,2.61,13.84s-0.1-9.64,5.26-12.92c13.07-7.98,15.16-11.28,16.99-17.71c0.25-0.88,0.39-1.68,0.49-2.47
				l11.95,18.59c0.55,0.8,1.47,2.17,2.53,3.94c3.1,5.15,7.38,13.6,7.38,20.93c0,11.49-2.41,19.3-4.02,23.84
				c-2.07,5.85-6.73,11.73-6.73,11.73s18.41-13.92,22.25-35.91C124,90.27,129.13,73.99,122.89,54.12"/>
		</g>
	</g>
</g>
<g id="Layer_3">
</g>
</svg>
