<?xml version="1.0" encoding="utf-8"?>
<!-- Generator: Adobe Illustrator 23.0.1, SVG Export Plug-In . SVG Version: 6.00 Build 0)  -->
<svg version="1.1" xmlns="http://www.w3.org/2000/svg" xmlns:xlink="http://www.w3.org/1999/xlink" x="0px" y="0px"
	 viewBox="0 0 150 150" style="enable-background:new 0 0 150 150;" xml:space="preserve">
<style type="text/css">
	.st0{display:none;}
	.st1{display:inline;fill:#6699CC;}
	.st2{display:inline;}
	.st3{opacity:0.7;}
	.st4{fill:#CCAD8B;}
	.st5{fill:#BC9F82;}
	.st6{fill:#D9BF9F;}
	.st7{fill:#DCC5A1;}
	.st8{fill:#EDD9B4;}
	.st9{fill:#B47070;}
	.st10{fill:#C17874;}
	.st11{fill:#111111;}
	.st12{fill:#070707;}
	.st13{fill:#3D321B;}
	.st14{fill:#99CC99;}
	.st15{clip-path:url(#SVGID_4_);}
	.st16{fill:#422E14;}
	.st17{fill:#332113;}
</style>
<g id="Layer_2" class="st0">
</g>
<g id="Layer_1" class="st0">
	<circle class="st1" cx="75" cy="75" r="75"/>
	<g class="st2">
		<g class="st3">
			<g>
				<defs>
					<rect id="SVGID_1_" x="66.92" y="122.95" width="22.02" height="12.97"/>
				</defs>
				<clipPath id="SVGID_2_">
					<use xlink:href="#SVGID_1_"  style="overflow:visible;"/>
				</clipPath>
			</g>
		</g>
		<g>
			<path class="st4" d="M77.84,31.33c-41.48-0.08-41.73,33.15-39.88,54.81c-2.84-5.08-11.26-3.2-10.57,4.95
				c0.67,7.79,12.55,11.33,12.39,10.47c3.4,17.65,22.96,27.45,38.06,28.85c0.11,0.01,0.22,0,0.32,0.01V31.33
				C78.06,31.33,77.95,31.33,77.84,31.33"/>
		</g>
		<g>
			<path class="st5" d="M29.47,87.65c2.09-3.15,5.29-1.79,6.08-1.09c0.84,0.75,1.49,1.75,0.98,3.61c-0.29,1.04-1.46,1.13-1.17,2.72
				c0.32,1.79,1.19,1.91,1.68,2.31c0.49,0.41,1.11,0.72,1.42,1.48c0.3,0.75,0.36,1.55,0.19,2.25c-0.32,1.29-2.3,0.27-3.63-0.31
				c-0.88-0.38-3.66-2.59-4.36-3.35C28.9,93.37,28.08,89.75,29.47,87.65"/>
		</g>
		<g>
			<path class="st6" d="M78.05,31.33c41.49-0.08,41.73,33.15,39.88,54.81c2.85-5.08,11.27-3.2,10.58,4.95
				c-0.67,7.79-12.56,11.33-12.39,10.47c-3.4,17.65-22.95,27.45-38.07,28.85c-0.1,0.01-0.21,0-0.32,0.01V31.33
				C77.84,31.33,77.95,31.33,78.05,31.33"/>
		</g>
		<g>
			<path class="st5" d="M126.72,87.65c-2.08-3.15-5.29-1.79-6.08-1.09c-0.84,0.75-1.49,1.75-0.99,3.61c0.3,1.04,1.46,1.13,1.18,2.72
				c-0.31,1.79-1.19,1.91-1.68,2.31c-0.49,0.41-1.12,0.72-1.42,1.48c-0.3,0.75-0.35,1.55-0.19,2.25c0.32,1.29,2.31,0.27,3.63-0.31
				c0.88-0.38,3.65-2.59,4.35-3.35C127.29,93.37,128.11,89.75,126.72,87.65"/>
		</g>
		<g>
			<path class="st7" d="M77.63,40.73c-13.85,0-24,3.81-30.14,11.32c-8.57,10.5-8.25,26.53-5.08,38.04c0.96,3.51,1.46,13,2.13,16.48
				c2.99,15.56,21.14,23.85,33.09,23.85c0.1,0,0.21-0.01,0.32-0.01V40.74C77.84,40.74,77.74,40.73,77.63,40.73"/>
		</g>
		<g>
			<path class="st8" d="M107.7,52.07c-6.09-7.47-16.12-11.27-29.75-11.33v89.67c13.64-0.14,29.95-9.22,32.76-23.84
				c0.66-3.48,1.16-12.97,2.13-16.47C115.99,78.62,116.3,62.61,107.7,52.07"/>
		</g>
		<g>
			<path class="st9" d="M84.92,116.36c0,0-3.13,3.34-6.99,3.34c-3.85,0-6.81-3.27-6.81-3.27s2.95-0.5,6.81-0.5
				C81.8,115.93,84.92,116.36,84.92,116.36"/>
		</g>
		<g>
			<path class="st10" d="M79.92,114.82c-1.09,0-1.96,0.68-1.99,1.52c-0.02-0.84-0.89-1.52-1.97-1.52c-1.1,0-5.01,1.54-5.01,1.54
				s3.81,0.39,4.92,0.39c1.08,0,2.05,0.43,2.07-0.37c0.02,0.81,0.81,0.5,1.89,0.5c1.1,0,5.1-0.52,5.1-0.52
				S81.01,114.82,79.92,114.82"/>
		</g>
		<g>
			<g>
				<path class="st11" d="M72.21,90.62c0,4.97-7.36,9.91-16.01,10.12c-0.18,0.02-0.39,0.02-0.59,0.02c-0.73,0-1.44-0.02-2.08-0.04
					c-10.49-0.49-11.96-4.74-11.96-9.55c0-5.08-3.07-9.19,15.05-9.19c2.76,0,5.01,0.08,6.88,0.25c2.54,0.2,4.35,0.57,5.64,1.05
					C73.15,84.75,72.21,87.37,72.21,90.62"/>
			</g>
			<g>
				<path class="st11" d="M115.27,91.17c0,5.1-1.67,9.59-14.04,9.59c-0.53,0-1.06-0.01-1.55-0.06c-0.94-0.04-1.84-0.17-2.72-0.34
					c-6.96-1.28-12.34-5.5-12.34-9.74c0-5.08-2.25-8.64,15.59-8.64c2.66,0,4.85,0.08,6.66,0.25c4.85,0.44,7.01,1.42,7.92,2.79
					C115.94,86.66,115.27,88.79,115.27,91.17"/>
			</g>
			<g>
				<path class="st12" d="M75.49,83.58c-1.07-0.17-3.63-0.81-6.25-1.32c-2.3-0.45-4.66-0.77-5.95-0.9
					c-3.14-0.31-11.15-0.54-16.12-0.2c-5.9,0.4-10.41,0.88-10.64,1.22c-0.17,0.24-0.52,3.37-0.04,3.71c0.47,0.34,2.13,1,2.54,2.12
					c0.4,1.11,2.04,9.08,5.69,11.28c6.01,3.58,26.2,3.74,29.68-9.35c0.48-1.79,1.11-2.83,2.2-3.12c0.47-0.14,1.22-0.23,1.95-0.22
					v-3.03C77.57,83.81,76.67,83.77,75.49,83.58 M71.24,91.31c-3.15,10.26-18.36,9.06-22.03,8.25c-1.62-0.35-6.35-1.68-7.1-10.03
					c-0.53-5.8,3.29-6.15,8.69-6.64c4.4-0.4,8.3-0.23,10.95,0.02c2.64,0.23,8.81,1.17,9.41,2.76
					C71.76,87.26,71.92,89.07,71.24,91.31"/>
			</g>
			<g>
				<path class="st12" d="M78.17,83.77v3.03c0.74-0.01,1.46,0.08,1.95,0.22c1.09,0.29,1.72,1.33,2.19,3.12
					c3.49,13.09,23.68,12.93,29.7,9.35c3.64-2.19,5.28-10.17,5.68-11.28c0.41-1.11,2.07-1.77,2.54-2.12
					c0.48-0.34,0.12-3.47-0.04-3.71c-0.22-0.34-4.75-0.83-10.64-1.22c-4.99-0.33-12.98-0.11-16.13,0.2
					c-1.29,0.14-3.65,0.45-5.96,0.9c-2.61,0.51-5.17,1.15-6.24,1.31C80.04,83.77,79.16,83.81,78.17,83.77 M85.58,85.67
					c0.6-1.59,6.77-2.53,9.41-2.76c2.64-0.25,6.55-0.42,10.94-0.02c5.4,0.49,9.23,0.85,8.69,6.64c-0.76,8.35-5.48,9.68-7.1,10.04
					c-3.67,0.8-18.88,2-22.03-8.26C84.8,89.07,84.96,87.27,85.58,85.67"/>
			</g>
		</g>
		<g>
			<path class="st13" d="M122.89,54.12c-0.54-1.71-1.11-3.3-1.68-4.83v-0.66c0-6.46-5.28-14.84-13.69-22.98
				c-8.41-8.14-13.7-6.46-20.66-6.23c0,0-0.02,0.05-0.05,0.13c-3.06-0.71-19.51-4.23-29.28-0.33
				c-10.81,4.31-19.67,11.71-25.91,31.58c-6.25,19.87-1.12,36.14,0.09,43.09c3.84,21.98,22.25,35.9,22.25,35.9
				s-4.65-5.88-6.73-11.73c-1.61-4.55-4.02-12.35-4.02-23.84c0-11.48,10.51-25.71,10.51-25.71s-4.85,8.92-5.8,18.74
				c-0.96,9.81,4.12,17.4,4.12,17.4s-6.44-12.74,3.85-22.26c3.27-3.03,6.01-6.19,8.21-9.07c0,0.01-0.01,0.01-0.01,0.02
				c-2.58,7.52,2.61,13.84,2.61,13.84s-0.1-9.64,5.26-12.92c13.07-7.98,15.16-11.28,16.99-17.71c0.25-0.88,0.39-1.68,0.49-2.47
				l11.95,18.59c0.55,0.8,1.47,2.17,2.53,3.94c3.1,5.15,7.38,13.6,7.38,20.93c0,11.49-2.41,19.3-4.02,23.84
				c-2.07,5.85-6.73,11.73-6.73,11.73s18.41-13.92,22.25-35.91C124,90.27,129.13,73.99,122.89,54.12"/>
		</g>
	</g>
</g>
<g id="Layer_3">
	<circle class="st14" cx="75" cy="75" r="75"/>
	<g>
		<g>
			<g>
				<g>
					<defs>
						<rect id="SVGID_3_" x="66.2" y="123.32" width="22.52" height="13.26"/>
					</defs>
					<clipPath id="SVGID_4_">
						<use xlink:href="#SVGID_3_"  style="overflow:visible;"/>
					</clipPath>
					<g class="st15">
						<path class="st5" d="M88.72,130.44v0.03c-1.01,1.59-4.45,6.12-11.26,6.12h-0.07c-6.46-0.03-10.22-4.72-11.19-6.08
							c0.23-1.38,0.42-2.82,0.57-4.33c0.08-0.9,0.18-1.82,0.26-2.75c3.16,0.81,6.58,1.28,10.25,1.34h0.11
							c3.78-0.06,7.26-0.56,10.5-1.44c0.09,0.91,0.18,1.82,0.25,2.68C88.31,127.58,88.48,129.06,88.72,130.44"/>
					</g>
				</g>
				<g>
					<path class="st6" d="M77.73,24.26c43.05,0,43.31,35.92,41.39,59.41c2.96-5.56,11.69-3.83,10.97,4.93
						c-0.67,8.47-13.03,12.82-12.85,11.85c-3.53,19.35-23.78,30.52-39.5,30.52c-0.1,0-0.21-0.02-0.34-0.02V24.26H77.73"/>
				</g>
				<g>
					<path class="st5" d="M127.35,84.9c-2.14-3.4-5.43-1.94-6.22-1.19c-0.85,0.81-1.53,1.89-1.01,3.9c0.3,1.11,1.49,1.2,1.2,2.92
						c-0.32,1.92-1.22,2.05-1.72,2.49c-0.5,0.42-1.13,0.76-1.45,1.58c-0.31,0.81-0.37,1.68-0.19,2.41c0.33,1.39,2.35,0.29,3.7-0.31
						c0.91-0.41,3.75-2.8,4.46-3.62C127.92,91.07,128.77,87.16,127.35,84.9"/>
				</g>
				<g>
					<path class="st4" d="M77.51,24.26c-43.05,0-43.3,35.92-41.39,59.41c-2.94-5.56-11.68-3.83-10.98,4.93
						c0.7,8.47,13.04,12.82,12.86,11.85c3.53,19.35,23.8,30.52,39.5,30.52c0.11,0,0.23-0.02,0.33-0.02V24.26H77.51"/>
				</g>
				<g>
					<path class="st5" d="M27.95,84.9c2.13-3.4,5.43-1.94,6.22-1.19c0.85,0.81,1.54,1.89,1.01,3.9c-0.3,1.11-1.49,1.2-1.2,2.92
						c0.32,1.92,1.22,2.05,1.73,2.49c0.5,0.42,1.13,0.76,1.45,1.58c0.31,0.81,0.37,1.68,0.19,2.41c-0.33,1.39-2.35,0.29-3.7-0.31
						c-0.9-0.41-3.75-2.8-4.46-3.62C27.37,91.07,26.53,87.16,27.95,84.9"/>
				</g>
				<g>
					<path class="st7" d="M77.15,34.38c-14.17,0-24.53,4.11-30.83,12.2c-8.76,11.3-8.43,28.57-5.19,40.96
						c0.98,3.79,1.49,14,2.18,17.75c3.06,16.75,21.61,25.69,33.84,25.69h0.32V34.39C77.37,34.39,77.25,34.38,77.15,34.38"/>
				</g>
				<g>
					<path class="st8" d="M107.89,46.6c-6.22-8.05-16.47-12.13-30.43-12.21v96.57c13.97-0.14,30.64-9.93,33.51-25.67
						c0.68-3.75,1.19-13.95,2.18-17.75C116.37,75.18,116.69,57.93,107.89,46.6"/>
				</g>
				<g>
					<path class="st16" d="M129.59,91.01c-2.1-15.07,1.5-26.8-1.3-38.56c-2.8-11.77-3.55-12.92-8.22-19.31
						c-4.65-6.39-9.13-11.54-21.73-15.78c-12.57-4.24-15.25-2.79-20.06-2.73c-7.67,0.1-12.57,3.7-12.57,3.7s-0.71-2.65,0.45-6.23
						c1.17-3.58,2.12-5.28,2.12-5.28s-3.07,4.7-3.73,5.89c-2.73,4.85-1.87,6.79-1.87,6.79c-2.56-1.42-13.52-5.77-13.52-5.77
						s3.73,2.3,4.18,4.35c0.47,2.04-24.73,11.61-28.24,37.7c-1.26,9.48-0.88,16.86,0.1,22.45c0.74,2.59,3.59,10.82,11.49,18.55
						c0.41-3.53,0.21-6.06,0.79-9.06c0.15-0.81,0.3-1.85,0.44-3.01c0.36,1.96,0.96,3.99,1.91,6.01c1.48,3.17,3.39,5.39,3.39,5.39
						s-2.94-6.59-2.38-13.54c0.38-4.36,3-5.04,8.83-21.03c0.44-1.2,0.75-2.58,0.96-4.03c0.3,0.83,0.65,1.6,1.09,2.27
						c4.39,6.71,10.76,8.93,10.76,8.93s-6.96-5.35-7.04-14.82c-0.05-5.12,1.87-9.2,1.87-9.2s-1.79,10.66,14.35,17.05
						c4.66,1.85,8.26,0.61,8.26,0.61s-6.71-3.94-6.76-10.75c0,0,10.16,13.07,28.67,17.39c7.15,1.67,12.01,1.2,12.01,1.2
						s0.75-1.54,0.52,5.67c-0.24,7.22-1.49,10.3-3.2,12.79c-0.69,1-2.82,2.87-2.82,2.87s5.36-1.98,8.72-8.77
						c1.69-3.44,3.01-5.18,2.92-7.21c0.16,2.52-0.83,6.35-1.36,14.45c-1.01,15.18-6.3,21.79-6.3,21.79s3.86-2.14,7.05-8.44
						c0.33-0.67,0.66-1.37,0.98-2.14c0.16-0.38,0.33-0.76,0.47-1.17h0.01c0.94-2.41,1.84-11.67,2.63-15.14c0,0,1.83,8.8,2.76,13.45
						c0.95-1.27,1.93-3.02,2.82-5.45C129.05,92.89,131.23,102.86,129.59,91.01"/>
				</g>
			</g>
			<g>
				<g>
					<g>
						<path class="st17" d="M58.85,77.31c2.58,0,4.68,2.38,4.68,5.32c0,2.94-2.09,5.31-4.68,5.31c-2.58,0-4.68-2.38-4.68-5.31
							C54.17,79.69,56.26,77.31,58.85,77.31z"/>
					</g>
					<g>
						<path class="st17" d="M96.84,77.31c2.58,0,4.68,2.38,4.68,5.32c0,2.94-2.09,5.31-4.68,5.31c-2.59,0-4.68-2.38-4.68-5.31
							C92.16,79.69,94.25,77.31,96.84,77.31z"/>
					</g>
				</g>
			</g>
			<g>
				<g>
					<g>
						<path class="st11" d="M73.12,73.71c-7.31-8.91-34.87-2.59-34.91-2.59c0.51,2.01,0.95,4,1.34,5.96
							c2.05,0.21,2.17,4.81,2.37,6.49c0.99,8.13,6.43,14.11,17.87,13.83c11.47-0.6,14.16-8.9,14.62-14.12
							C74.94,77.57,73.12,73.72,73.12,73.71z M71.81,83.69c-0.59,7.28-5.06,11.54-12.29,11.89c-0.73,0.03-1.44,0.04-2.12,0.02
							c-11.39-0.02-13.34-9.99-13.57-16.3c-0.14-3.61,2.43-6.7,6.07-7.06c2.09-0.21,4.44-0.21,7.16-0.21
							c8.51,0,12.22,2.03,13.2,3.66C70.85,76.67,72.15,79.73,71.81,83.69z"/>
					</g>
					<g>
						<path class="st11" d="M81.19,83.27c0.47,5.22,3.15,13.52,14.63,14.12c11.44,0.29,16.88-5.7,17.87-13.83
							c0.21-1.69,0.33-6.28,2.37-6.49c0.4-1.97,0.84-3.95,1.34-5.96c-0.03,0-27.59-6.32-34.9,2.59
							C82.5,73.72,80.68,77.57,81.19,83.27z M85.35,75.7c0.98-1.63,4.69-3.66,13.2-3.66c2.72,0,5.07,0,7.17,0.21
							c3.64,0.35,6.21,3.44,6.07,7.06c-0.23,6.3-2.17,16.28-13.57,16.3c-0.67,0.02-1.39,0.02-2.12-0.02
							c-7.23-0.35-11.7-4.62-12.29-11.89C83.47,79.73,84.77,76.66,85.35,75.7z"/>
					</g>
				</g>
				<g>
					<path class="st11" d="M82.76,80.71c0-0.01-1.87-1.48-5.14-1.47c-3.06-0.01-4.75,1.46-4.75,1.47c-0.5-1.38-1-2.77-1.5-4.14
						c4.3,0,8.59,0,12.89,0C83.75,77.95,83.25,79.33,82.76,80.71z"/>
				</g>
			</g>
			<g>
				<path class="st16" d="M77.61,108.25c-0.43,5.5-10.99,5-16.5,5c2.75-2.47,9.93-8.05,15.43-8.05
					C76.54,105.19,77.68,107.45,77.61,108.25"/>
			</g>
			<g>
				<path class="st16" d="M76.83,108.25c0.44,5.5,11,5,16.5,5c-2.74-2.47-9.92-8.05-15.43-8.05
					C77.9,105.19,76.77,107.45,76.83,108.25"/>
			</g>
			<g>
				<path class="st16" d="M115.64,95.89c-1.57,2.62-5.56,3.12-8.63,6.81c-3.05,3.68-17.13,9.94-17.13,9.94s-0.29,5.44-8.71,5.48
					c-1.54,0-2.64-2.33-3.86-2.26c-0.02,0-0.03,0-0.03,0c0,0-0.02,0-0.04,0c-1.23-0.07-2.31,2.26-3.86,2.26
					c-8.42-0.03-8.71-5.48-8.71-5.48s-14.09-6.26-17.15-9.94c-3.06-3.69-7.06-4.19-8.62-6.81c-1.19-1.99,2,9.49,3.1,11.95
					c1.1,2.46,3.48,10.65,6.29,14.96c2.8,4.3,4.08,4.51,5.1,5.53c1.02,1.02,0-4.92,0-4.92s3.82,5.94,5.35,7.38
					c1.53,1.44,10.72,6.96,16.83,8.81c0.47,0.15,0.89,0.24,1.31,0.34v0.11c0.07-0.01,0.15-0.04,0.22-0.06
					c0.04,0.01,0.08,0.03,0.13,0.03v0.03c0.02,0,0.03,0,0.05-0.01c0.01,0.01,0.03,0.01,0.04,0.01v-0.03
					c0.04-0.01,0.09-0.02,0.12-0.03c0.08,0.02,0.16,0.05,0.23,0.06v-0.11c0.43-0.11,0.84-0.2,1.32-0.34
					c6.11-1.85,15.31-7.37,16.83-8.81c1.52-1.44,5.35-7.38,5.35-7.38s-1.02,5.94,0,4.92c1.02-1.02,2.29-1.23,5.1-5.53
					c2.8-4.3,5.18-12.5,6.29-14.96C113.64,105.38,116.83,93.91,115.64,95.89"/>
			</g>
		</g>
	</g>
</g>
</svg>
